# xmcd CD database file
#
# Track frame offsets:
#	150
#	14942
#	38632
#	57975
#	65567
#	84362
#	104225
#	115742
#	137232
#	158867
#	234900
#
# Disc length: 4440 seconds
#
# Revision: 0
# Processed by: cddbd v1.5PL3 Copyright (c) Steve Scherf et al.
# Submitted via: CDex 1.51
#
DISCID=9711560b
DTITLE=山下久美子 - 歌う女 歌わない女
DYEAR=2003
DGENRE=Rock
TTITLE0=朗読 「私だけが知っている事」 ?
TTITLE1=悲しみよこんにちわ
TTITLE2=歌う女 歌わない女
TTITLE3=朗読 「私だけが知っている事」 ?
TTITLE4=ひまわり
TTITLE5=天使のくれた時間
TTITLE6=朗読 「私だけが知っている事」 ?
TTITLE7=PAINT IT BLUE
TTITLE8=結婚しない女
TTITLE9=朗読 「私だけが知っている事」 ?
TTITLE10=CCCD
EXTD=YEAR: 2003
EXTT0=
EXTT1=
EXTT2=
EXTT3=
EXTT4=
EXTT5=
EXTT6=
EXTT7=
EXTT8=
EXTT9=
EXTT10=
PLAYORDER=
